<svg width="162" height="31" viewBox="0 0 162 31" fill="none" xmlns="http://www.w3.org/2000/svg">
<path d="M33.7549 8.91852C32.3919 8.91852 31.2681 9.99454 31.2681 11.3513V16.4974V21.6436H33.7549V16.4974V11.3513H36.72H39.6851V8.91852H36.72H33.7549Z" fill="#E1E1E6"/>
<path d="M54.5119 15.2573V11.3275C54.5119 9.99419 53.4119 8.89478 52.025 8.89478H48.0078H43.9905C42.6275 8.89478 41.5037 9.97079 41.5037 11.3275V15.2573V19.1871C41.5037 20.5205 42.6036 21.6199 43.9905 21.6199H48.0078H52.025C53.388 21.6199 54.5119 20.5439 54.5119 19.1871V15.2573ZM52.025 15.2573V19.1871H48.0078H43.9905V15.2573V11.3275H48.0078H52.025V15.2573Z" fill="#E1E1E6"/>
<path d="M59.4864 8.91852C58.1234 8.91852 56.9995 9.99454 56.9995 11.3513V15.2811V19.2109C56.9995 20.5442 58.0995 21.6436 59.4864 21.6436L68.2382 21.5267V19.2109H59.4864V15.2811V11.3513H68.2382V9.03548L59.4864 8.91852Z" fill="#E1E1E6"/>
<path d="M82.4921 8.91852H79.1205L74.1946 14.0413H73.2142V8.91852H70.7273V15.2577V21.6202H73.2142V16.4741H74.4576H74.6489L79.7661 21.6202H83.1855L76.6097 14.977L82.4921 8.91852Z" fill="#E1E1E6"/>
<path d="M86.1941 19.1871V16.4737L96.7155 16.3567V14.041V11.3275C96.7155 9.99419 95.6155 8.89478 94.2286 8.89478H90.2114H86.1941C84.8311 8.89478 83.7073 9.97079 83.7073 11.3275V15.2573V19.1871C83.7073 20.5205 84.8072 21.6199 86.1941 21.6199L96.7155 21.5029V19.1871H86.1941ZM86.1941 11.3275H90.2114H94.2286V14.041H91.4548H86.1941V11.3275Z" fill="#E1E1E6"/>
<path d="M102.958 5.20081H102.002L100.471 7.04876V8.89671H98.5823V11.3294L100.471 11.3061V19.1891C100.471 20.5224 101.571 21.6218 102.958 21.6218L106.975 21.5049V19.1891H102.958V11.2827L107.334 11.2125V8.89671H102.958V5.20081Z" fill="#E1E1E6"/>
<path d="M120.436 16.4737C120.436 15.1404 119.336 14.041 117.949 14.041H114.817H111.684V11.3275H120.436V9.01173L111.684 8.89478C110.321 8.89478 109.197 9.97079 109.197 11.3275V14.041C109.197 15.3743 110.297 16.4737 111.684 16.4737H114.817H117.949V19.1871H109.197V21.5029L117.949 21.6199C119.312 21.6199 120.436 20.5439 120.436 19.1871V16.4737Z" fill="#E1E1E6"/>
<path d="M133.419 8.91852H129.402H125.384C124.021 8.91852 122.897 9.99454 122.897 11.3513V15.2811V19.2109C122.897 20.5442 123.997 21.6436 125.384 21.6436L135.906 21.5267V19.2109H125.384V16.4974L135.906 16.3805V14.0647V11.3513C135.906 9.99454 134.806 8.91852 133.419 8.91852ZM133.419 14.0413H125.384V11.3279H129.402H133.419V14.0413Z" fill="#E1E1E6"/>
<path d="M148.915 8.91852L138.393 9.03548V11.3513H148.915V14.0647L138.393 14.1817V16.4974V19.2109C138.393 20.5442 139.493 21.6436 140.88 21.6436H144.897H148.915C150.278 21.6436 151.402 20.5676 151.402 19.2109V15.2811V11.3513C151.378 9.99454 150.278 8.91852 148.915 8.91852ZM148.915 19.1875H144.897H140.88V16.4741H148.915V19.1875Z" fill="#E1E1E6"/>
<path d="M157.624 11.2823L162 11.2122V8.89638H157.624V5.17709H156.667L155.137 7.02504V8.87299H153.248V11.3057L155.137 11.2823V19.1654C155.137 20.4987 156.237 21.5981 157.624 21.5981L161.641 21.4812V19.1654H157.624V11.2823Z" fill="#E1E1E6"/>
<path d="M24.6925 0.591016L20.6514 0.00622214C20.5318 -0.0171696 20.4123 0.029611 20.3644 0.0763945L18.6428 2.27522C18.5232 2.41557 18.4993 2.6027 18.5471 2.76645C18.5949 2.93019 18.4515 3.07054 18.2841 3.04715L16.8733 2.74305C16.6581 2.69627 16.4189 2.76645 16.2755 2.95358L10.68 9.97111C10.5844 10.1115 10.3931 10.1582 10.2257 10.0881L8.0975 9.1524C7.9062 9.05883 7.69099 9.08222 7.52361 9.19918L6.44756 9.92432C6.28018 10.0413 6.04106 10.0647 5.84976 9.97111L5.32369 9.7138C4.98892 9.55006 4.58242 9.73719 4.48677 10.0881L4.10417 11.7489C4.00852 12.1465 4.17591 12.5442 4.53459 12.7547L5.3476 13.246L7.95403 14.8132L9.22137 15.5851C9.58005 15.7957 10.0344 15.7489 10.3452 15.4916L12.4734 13.667C12.6408 13.5267 12.9038 13.4799 13.0951 13.5968L13.7408 13.9243C13.956 14.0413 14.219 13.9945 14.3864 13.8307L15.4624 12.8483C15.6298 12.6846 15.8929 12.6612 16.0842 12.7547L17.6863 13.4799C17.9254 13.5968 18.2123 13.5267 18.3797 13.3161L19.121 12.3805L24.7404 5.33954C25.0034 5.01205 24.836 4.52083 24.4056 4.42726L23.1622 4.14656C22.8991 4.09977 22.7796 3.77229 22.9709 3.58516L24.9077 1.22259C25.099 0.941888 24.9795 0.637799 24.6925 0.591016Z" fill="#E1E1E6"/>
<path d="M6.15839 14.7654C6.03883 14.6952 5.91927 14.8122 5.9671 14.9292L6.5649 16.473C6.61272 16.59 6.61272 16.7069 6.58881 16.8239L6.06274 18.8356C6.03883 18.9759 6.08666 19.1163 6.1823 19.1865L7.68877 20.3327C7.83224 20.4262 8.02354 20.4262 8.1431 20.3093L9.7213 18.9525C9.81695 18.8824 9.93651 18.8356 10.0322 18.8122L11.8256 18.6251C11.9451 18.6017 11.993 18.4379 11.8734 18.3677L6.15839 14.7654Z" fill="#E1E1E6"/>
<path d="M5.63239 19.9608C5.53674 19.8906 5.39327 19.8672 5.27371 19.914L4.00637 20.5222C3.93463 20.5456 3.8868 20.6158 3.83898 20.6859L1.13691 27.2122C1.13691 27.2356 1.13691 27.2356 1.13691 27.259C1.16082 27.2824 1.18473 27.3058 1.23256 27.3058L1.85427 27.0719C1.87818 27.0719 1.90209 27.0719 1.92601 27.0719C1.94992 27.0953 1.97383 27.1421 1.94992 27.1655L0.0130339 30.2766C-0.0347904 30.3467 0.0608604 30.4169 0.108685 30.3467L7.11495 23.4696C7.18668 23.3994 7.2106 23.3292 7.23451 23.2356L7.37798 21.4579C7.37798 21.3409 7.33015 21.2473 7.25842 21.1772L5.63239 19.9608Z" fill="#E1E1E6"/>
</svg>
